<svg version="1.0" xmlns="http://www.w3.org/2000/svg" width="804.000000pt" height="307.000000pt" viewBox="0 0 804.000000 307.000000" preserveAspectRatio="xMidYMid meet">
<g transform="translate(0.000000,307.000000) scale(0.100000,-0.100000)"
fill="#000000" stroke="none">
<path d="M3465 3008 c-16 -6 -41 -20 -54 -32 -35 -31 -128 -177 -291 -456
-255 -438 -377 -623 -483 -736 -53 -57 -101 -94 -123 -94 -12 0 4 122 30 236
53 231 139 508 211 679 85 204 100 276 70 335 -28 55 -105 76 -165 45 -58 -30
-167 -264 -255 -550 -21 -66 -39 -121 -39 -122 -6 -8 -260 -32 -267 -26 -4 4
-9 76 -11 158 -3 147 -4 152 -36 217 -107 218 -340 237 -661 53 -63 -35 -116
-63 -119 -61 -2 3 1 21 8 41 17 52 9 149 -16 176 -24 28 -74 49 -115 49 -73 0
-106 -68 -209 -429 -51 -179 -76 -229 -205 -411 -180 -254 -305 -461 -422
-694 -186 -370 -269 -637 -261 -835 3 -83 7 -103 31 -143 38 -65 85 -92 161
-92 199 -1 351 229 566 856 37 110 72 204 77 209 5 5 37 -3 73 -17 122 -50
282 -33 449 47 224 106 411 284 532 505 35 64 45 75 77 83 49 13 261 35 268
28 3 -2 -2 -45 -10 -93 -37 -215 -30 -336 25 -432 42 -74 101 -107 194 -107
134 0 246 81 411 296 59 77 108 138 109 137 1 -2 -3 -66 -11 -143 -17 -184
-11 -229 43 -286 l24 -26 -22 -49 c-43 -99 -129 -338 -163 -452 -47 -160 -68
-286 -67 -406 1 -133 14 -196 54 -270 56 -102 172 -160 243 -123 69 37 156
154 226 306 42 89 64 154 249 730 63 194 119 356 126 358 6 2 29 -7 51 -22 56
-37 123 -55 204 -55 91 0 144 14 253 65 253 118 471 398 575 740 45 146 51
270 20 384 -47 168 -152 268 -300 286 -80 10 -235 -24 -332 -72 l-76 -38 -6
28 c-13 66 -114 119 -182 97 -48 -16 -74 -65 -150 -285 -35 -102 -71 -199 -79
-215 -8 -16 -61 -87 -118 -157 -56 -70 -144 -191 -195 -268 -52 -77 -95 -141
-97 -143 -1 -2 6 32 16 75 41 178 108 373 274 798 54 139 68 229 41 270 -32
49 -97 72 -151 53z m1089 -441 c17 -23 21 -41 19 -105 -6 -339 -354 -802 -603
-802 -65 0 -131 29 -163 72 l-20 26 41 134 c22 73 48 160 57 193 36 127 102
215 249 330 223 173 366 225 420 152z m-2745 -12 c35 -35 16 -242 -28 -296 -9
-11 -41 -26 -77 -34 -34 -8 -169 -61 -300 -119 -228 -99 -320 -133 -331 -122
-7 7 16 73 47 136 63 125 395 387 560 441 59 20 106 18 129 -6z m-198 -654
c-34 -47 -159 -158 -238 -211 -115 -77 -260 -112 -309 -75 -19 15 -18 16 9 40
53 47 292 175 452 241 101 42 113 43 86 5z m1814 -537 c-92 -330 -260 -788
-310 -849 l-24 -30 -1 42 c0 69 86 351 193 628 80 207 168 384 175 351 2 -7
-13 -72 -33 -142z m-2915 -250 c-54 -161 -156 -391 -168 -380 -5 6 29 110 83
251 47 120 136 317 142 312 1 -2 -24 -84 -57 -183z"/>
<path d="M6275 1364 c-218 -27 -260 -41 -279 -96 -12 -34 9 -87 39 -98 12 -4
57 -4 101 0 43 5 117 10 163 12 105 4 111 -2 92 -99 -18 -87 -69 -267 -131
-462 -28 -84 -50 -162 -50 -172 0 -10 11 -30 24 -45 34 -41 89 -39 127 4 34
38 96 224 175 527 30 115 61 219 69 231 13 20 25 23 152 29 132 7 138 9 165
36 36 36 37 77 2 110 l-26 24 -296 1 c-163 1 -310 0 -327 -2z"/>
<path d="M4766 1349 c-73 -12 -110 -72 -175 -289 -84 -283 -120 -466 -107
-552 8 -56 43 -95 95 -104 37 -7 229 10 313 28 83 17 115 92 63 144 -25 25
-28 25 -118 18 -163 -14 -174 -8 -163 80 11 88 29 102 133 110 143 11 173 28
173 94 0 51 -27 72 -105 83 -95 13 -105 17 -105 41 0 42 41 158 59 168 13 6
47 6 103 -1 94 -12 186 0 209 27 7 9 13 32 13 51 0 71 -70 99 -255 105 -53 2
-113 0 -133 -3z"/>
<path d="M5695 1350 c-132 -21 -269 -85 -334 -155 -104 -112 -73 -205 118
-355 90 -71 125 -131 119 -201 -6 -57 -26 -83 -75 -100 -53 -17 -99 -3 -152
45 -57 54 -81 62 -120 41 -39 -19 -51 -43 -51 -96 0 -115 218 -207 381 -160
116 33 199 140 199 256 0 73 -25 162 -63 221 -30 48 -118 138 -158 161 -33 20
-54 56 -45 78 10 26 125 74 221 91 73 14 95 22 118 46 25 24 28 34 23 61 -4
18 -14 40 -24 49 -21 21 -89 29 -157 18z"/>
<path d="M7625 1350 c-91 -20 -112 -61 -206 -383 -74 -256 -101 -448 -70 -505
19 -36 70 -62 123 -62 66 0 278 28 311 42 15 6 32 19 37 29 17 31 12 87 -11
110 -20 20 -27 20 -112 13 -126 -11 -148 -10 -163 11 -15 21 -10 79 12 132 14
37 20 38 153 52 109 10 135 27 135 87 0 54 -34 79 -120 87 -95 9 -101 17 -75
108 25 90 47 113 100 102 20 -3 75 -7 123 -7 73 -1 91 2 115 20 15 12 29 31
31 44 11 73 -43 109 -176 116 -48 2 -107 6 -132 8 -25 2 -58 0 -75 -4z"/>
<path d="M3952 1330 c-112 -24 -134 -78 -226 -547 -38 -191 -46 -286 -27 -320
55 -104 240 -121 408 -38 100 49 203 149 226 219 25 74 22 146 -9 203 -31 59
-27 87 22 155 42 56 54 119 34 168 -19 45 -100 114 -167 139 -65 26 -191 36
-261 21z m182 -184 c19 -8 37 -19 41 -25 19 -32 -81 -108 -154 -118 -32 -4
-41 -2 -50 15 -14 25 12 117 37 131 25 15 87 13 126 -3z m17 -376 c12 -7 19
-21 19 -42 0 -82 -232 -214 -284 -163 -14 15 -16 28 -11 69 9 75 24 114 48
131 25 18 197 21 228 5z"/>
<path d="M7168 1299 c-26 -15 -32 -29 -102 -250 -35 -112 -87 -269 -115 -349
-53 -151 -62 -210 -36 -247 19 -28 70 -39 101 -22 32 17 49 56 149 339 126
358 149 471 105 518 -22 24 -72 29 -102 11z"/>
</g>
</svg>
