<?xml version="1.0" standalone="no"?>
<!DOCTYPE svg PUBLIC "-//W3C//DTD SVG 20010904//EN"
 "http://www.w3.org/TR/2001/REC-SVG-20010904/DTD/svg10.dtd">
<svg class="brandLogo brandLogo--lockup--animated" aria-label="Pupbestie" version="1.0" xmlns="http://www.w3.org/2000/svg"
 width="781.000000pt" height="185.000000pt" viewBox="0 0 781.000000 185.000000"
 preserveAspectRatio="xMidYMid meet">

<g class="brandLogo__wordMark" transform="translate(0.000000,185.000000) scale(0.100000,-0.100000)"
fill="#000000" stroke="none">
<path d="M2072 1794 c-30 -21 -78 -94 -207 -314 -133 -228 -233 -377 -285
-424 -67 -60 -71 -52 -41 85 30 136 79 295 127 414 25 61 48 131 51 156 5 39
2 49 -18 67 -31 30 -79 29 -108 -2 -28 -30 -90 -172 -127 -293 -32 -102 -24
-96 -136 -108 l-58 -6 0 84 c0 132 -35 203 -118 239 -75 34 -189 10 -314 -66
l-56 -34 5 51 c7 70 -20 107 -77 107 -51 0 -58 -12 -110 -180 -57 -191 -61
-198 -164 -349 -265 -387 -416 -744 -390 -920 10 -65 57 -111 113 -111 50 0
85 17 128 62 62 66 139 226 214 448 23 69 43 126 45 128 1 2 23 -4 48 -12 89
-30 186 -14 306 51 116 63 215 162 280 282 27 49 34 52 151 65 61 7 62 7 55
-16 -4 -13 -10 -71 -13 -129 -7 -127 12 -186 69 -215 96 -49 201 4 323 166
l57 75 -7 -95 c-7 -93 -2 -122 26 -160 9 -12 0 -46 -40 -152 -69 -184 -94
-291 -95 -408 -1 -84 2 -102 25 -145 30 -59 78 -95 127 -95 28 0 42 8 73 41
60 65 110 182 213 502 53 163 99 297 101 297 2 0 24 -10 47 -23 128 -67 333
16 463 186 150 197 203 431 128 569 -66 122 -191 139 -385 54 -13 -6 -18 -4
-18 7 0 24 -49 57 -86 57 -48 0 -65 -24 -115 -167 -33 -95 -55 -142 -89 -186
-25 -32 -80 -109 -124 -170 -65 -93 -77 -106 -71 -77 9 44 100 312 153 450 57
148 60 173 28 204 -29 30 -70 34 -104 10z m666 -243 c20 -12 26 -83 12 -143
-62 -263 -314 -486 -430 -380 l-30 27 34 117 c18 65 45 137 60 162 36 61 155
158 248 201 56 26 84 30 106 16z m-1642 -18 c13 -14 15 -29 11 -80 -5 -72 -27
-113 -60 -113 -12 0 -74 -23 -137 -51 -148 -65 -241 -101 -247 -95 -3 3 3 25
12 50 38 99 292 295 397 305 4 1 14 -7 24 -16z m-166 -438 c-71 -72 -156 -122
-223 -131 -47 -7 -68 6 -48 30 19 23 293 160 331 165 2 1 -24 -28 -60 -64z
m1125 -321 c-80 -265 -171 -496 -182 -466 -7 19 15 102 70 262 50 147 133 337
142 328 3 -3 -11 -59 -30 -124z m-1751 -145 c-20 -57 -43 -117 -51 -132 -27
-53 -24 -21 6 59 73 195 107 251 45 73z"/>
<path d="M6075 1740 c-242 -15 -315 -43 -315 -119 0 -24 7 -45 22 -60 20 -22
27 -23 92 -17 39 3 116 9 171 13 129 8 132 5 110 -101 -20 -95 -81 -312 -135
-474 -48 -148 -50 -182 -14 -211 61 -48 124 -12 163 93 34 90 85 264 141 477
35 135 56 199 70 210 14 13 49 17 150 21 125 5 133 6 157 31 52 51 26 119 -53
137 -44 11 -394 10 -559 0z"/>
<path d="M4489 1707 c-50 -33 -82 -102 -143 -310 -66 -224 -96 -366 -97 -462
-2 -157 49 -179 326 -140 133 18 159 33 163 95 2 30 -2 48 -15 62 -17 19 -26
20 -140 13 -120 -6 -122 -6 -136 17 -12 19 -13 34 -5 80 14 80 28 90 149 99
113 9 144 23 154 68 14 66 -37 109 -131 110 -24 1 -51 8 -63 19 l-21 17 20 75
c12 41 26 81 32 88 9 10 37 12 128 6 163 -9 210 9 210 81 0 72 -93 105 -292
105 -93 0 -109 -3 -139 -23z"/>
<path d="M5382 1710 c-147 -39 -293 -145 -308 -224 -17 -92 11 -139 149 -252
94 -78 147 -150 147 -200 0 -79 -59 -130 -142 -122 -40 4 -56 13 -97 52 -61
57 -98 61 -142 17 -97 -98 63 -251 262 -251 111 0 202 50 256 140 39 64 49
123 34 198 -23 119 -85 209 -220 322 -50 42 -53 47 -42 69 17 32 100 67 212
91 116 25 143 43 147 97 3 34 -1 44 -24 62 -35 27 -129 28 -232 1z"/>
<path d="M7352 1714 c-58 -30 -88 -96 -167 -373 -96 -330 -107 -485 -42 -539
38 -32 136 -32 335 -1 94 15 127 44 119 104 -9 62 -24 68 -154 61 -135 -8
-153 -2 -152 52 1 61 22 115 49 129 14 7 52 13 85 13 122 1 175 29 175 94 -1
58 -45 86 -136 86 -22 0 -49 6 -59 14 -19 13 -19 16 -1 89 9 42 25 82 33 89
12 9 55 13 153 13 105 0 141 3 154 15 53 43 35 116 -35 145 -66 26 -311 33
-357 9z"/>
<path d="M3753 1709 c-146 -18 -163 -53 -258 -531 -49 -246 -52 -282 -31 -331
29 -69 88 -97 201 -97 216 0 430 164 452 347 4 42 1 61 -21 108 -32 72 -33
103 -1 146 36 49 65 110 65 138 0 51 -39 109 -102 151 -91 61 -188 83 -305 69z
m164 -194 c43 -28 21 -71 -56 -110 -113 -57 -156 -29 -115 76 9 22 26 45 38
50 28 12 104 3 133 -16z m-14 -364 c31 -12 42 -43 26 -73 -31 -60 -171 -148
-234 -148 -48 0 -59 20 -52 90 8 71 29 118 60 130 30 12 170 12 200 1z"/>
<path d="M6938 1675 c-31 -17 -37 -33 -117 -285 -33 -102 -80 -244 -106 -317
-55 -157 -62 -225 -26 -254 32 -26 83 -24 108 4 31 34 37 49 128 307 145 411
162 516 89 549 -32 14 -43 14 -76 -4z"/>
</g>
</svg>
