<svg version="1.0" xmlns="http://www.w3.org/2000/svg"
 width="512.000000pt" height="512.000000pt" viewBox="0 0 512.000000 512.000000"
 preserveAspectRatio="xMidYMid meet">

<g transform="translate(0.000000,512.000000) scale(0.100000,-0.100000)"
fill="#000000" stroke="none">
<path d="M0 2560 l0 -2560 2560 0 2560 0 0 2560 0 2560 -2560 0 -2560 0 0
-2560z m1963 2355 c157 -41 296 -159 379 -320 55 -108 73 -163 93 -275 63
-360 -89 -738 -354 -879 -192 -102 -399 -71 -567 82 -110 101 -181 224 -226
389 -19 70 -23 108 -23 243 0 135 4 173 23 243 101 371 389 592 675 517z
m1392 0 c193 -51 356 -221 435 -455 152 -449 -61 -967 -436 -1064 -207 -53
-425 47 -565 262 -186 284 -186 710 0 994 141 216 358 317 566 263z m-2551
-1225 c194 -49 350 -190 456 -411 60 -126 82 -221 87 -380 4 -101 1 -155 -11
-213 -53 -255 -198 -437 -399 -498 -83 -25 -201 -22 -288 9 -180 62 -349 238
-431 451 -102 262 -87 575 37 788 43 73 148 177 216 214 61 32 156 58 220 59
20 1 71 -8 113 -19z m3745 -25 c90 -24 158 -65 224 -135 73 -77 117 -156 149
-265 33 -115 33 -312 -1 -440 -94 -363 -369 -634 -663 -653 -145 -9 -256 35
-364 142 -212 212 -242 590 -74 926 156 311 470 494 729 425z m-1791 -715 c93
-33 197 -106 283 -199 42 -45 144 -179 225 -298 237 -344 277 -390 559 -619
215 -176 320 -287 372 -395 53 -108 67 -171 65 -294 -5 -506 -403 -918 -918
-952 -152 -10 -233 24 -452 185 -186 138 -286 176 -399 153 -84 -16 -161 -58
-308 -167 -145 -107 -198 -137 -282 -159 -72 -19 -148 -19 -254 0 -316 55
-576 247 -716 530 -87 175 -122 393 -89 552 37 174 127 297 348 480 366 301
397 333 623 663 228 332 305 414 463 494 87 44 153 56 292 52 97 -3 139 -8
188 -26z"/>
</g>
</svg>
